<svg width="73" height="58" viewBox="0 0 73 58" fill="none" xmlns="http://www.w3.org/2000/svg">
<path d="M7.24086 57.9269C5.24963 57.9269 3.54501 57.2179 2.127 55.7999C0.709001 54.3819 0 52.6773 0 50.686V28.9634H7.24086V50.686H50.686V7.24086H28.9635V0H50.686C52.6773 0 54.3819 0.709001 55.7999 2.127C57.2179 3.54501 57.9269 5.24963 57.9269 7.24086V23.5328L72.4086 9.05108V48.8758L57.9269 34.3941V50.686C57.9269 52.6773 57.2179 54.3819 55.7999 55.7999C54.3819 57.2179 52.6773 57.9269 50.686 57.9269H7.24086ZM10.8613 43.4452H47.0656L34.8467 27.1532L25.343 39.8247L19.4598 31.9503L10.8613 43.4452ZM7.24086 21.7226V14.4817H0V7.24086H7.24086V0H14.4817V7.24086H21.7226V14.4817H14.4817V21.7226H7.24086Z" fill="white"/>
</svg>
