<svg width="66" height="66" viewBox="0 0 66 66" fill="none" xmlns="http://www.w3.org/2000/svg">
<path d="M7.24086 65.1678C5.24963 65.1678 3.54501 64.4588 2.127 63.0408C0.709001 61.6228 0 59.9181 0 57.9269V7.24086C0 5.24963 0.709001 3.54501 2.127 2.127C3.54501 0.709001 5.24963 0 7.24086 0H36.2043V7.24086H7.24086V57.9269H57.9269V28.9634H65.1678V57.9269C65.1678 59.9181 64.4588 61.6228 63.0408 63.0408C61.6228 64.4588 59.9181 65.1678 57.9269 65.1678H7.24086ZM10.8613 50.686H54.3065L40.7299 32.5839L29.8686 47.0656L21.7226 36.2043L10.8613 50.686ZM50.686 21.7226V14.4817H43.4452V7.24086H50.686V0H57.9269V7.24086H65.1678V14.4817H57.9269V21.7226H50.686Z" fill="black" fill-opacity="0.2"/>
</svg>
