<svg width="14" height="14" viewBox="0 0 14 14" fill="none" xmlns="http://www.w3.org/2000/svg">
<path d="M2.4 5.33038L3.7 5.88038C3.85556 5.56926 4.01667 5.26926 4.18333 4.98038C4.35 4.69149 4.53333 4.4026 4.73333 4.11371L3.8 3.93038L2.4 5.33038ZM4.76667 6.71371L6.66667 8.59704C7.13333 8.41926 7.63333 8.14704 8.16667 7.78038C8.7 7.41371 9.2 6.99704 9.66667 6.53038C10.4444 5.7526 11.0528 4.88871 11.4917 3.93871C11.9306 2.98871 12.1222 2.11371 12.0667 1.31371C11.2667 1.25815 10.3889 1.44982 9.43333 1.88871C8.47778 2.3276 7.61111 2.93593 6.83333 3.71371C6.36667 4.18038 5.95 4.68038 5.58333 5.21371C5.21667 5.74704 4.94444 6.24704 4.76667 6.71371ZM7.35 4.68871C7.35 4.31649 7.47778 4.0026 7.73333 3.74704C7.98889 3.49149 8.30556 3.36371 8.68333 3.36371C9.06111 3.36371 9.37778 3.49149 9.63333 3.74704C9.88889 4.0026 10.0167 4.31649 10.0167 4.68871C10.0167 5.06093 9.88889 5.37482 9.63333 5.63038C9.37778 5.88593 9.06111 6.01371 8.68333 6.01371C8.30556 6.01371 7.98889 5.88593 7.73333 5.63038C7.47778 5.37482 7.35 5.06093 7.35 4.68871ZM8.05 10.9804L9.45 9.58038L9.26667 8.64704C8.97778 8.84704 8.68889 9.0276 8.4 9.18871C8.11111 9.34982 7.81111 9.50815 7.5 9.66371L8.05 10.9804ZM13.2667 0.097043C13.4778 1.44149 13.3472 2.74982 12.875 4.02204C12.4028 5.29427 11.5889 6.50815 10.4333 7.66371L10.7667 9.31371C10.8111 9.53593 10.8 9.7526 10.7333 9.96371C10.6667 10.1748 10.5556 10.3582 10.4 10.5137L7.6 13.3137L6.2 10.0304L3.35 7.18038L0.0666667 5.78038L2.85 2.98038C3.00556 2.82482 3.19167 2.71371 3.40833 2.64704C3.625 2.58038 3.84444 2.56927 4.06667 2.61371L5.71667 2.94704C6.87222 1.79149 8.08333 0.974821 9.35 0.497043C10.6167 0.0192652 11.9222 -0.114068 13.2667 0.097043ZM1.25 9.29704C1.63889 8.90815 2.11389 8.71093 2.675 8.70538C3.23611 8.69982 3.71111 8.89149 4.1 9.28038C4.48889 9.66926 4.68056 10.1443 4.675 10.7054C4.66944 11.2665 4.47222 11.7415 4.08333 12.1304C3.80556 12.4082 3.34167 12.647 2.69167 12.847C2.04167 13.047 1.14444 13.2248 0 13.3804C0.155556 12.2359 0.333333 11.3387 0.533333 10.6887C0.733333 10.0387 0.972222 9.57482 1.25 9.29704ZM2.2 10.2304C2.08889 10.3415 1.97778 10.5443 1.86667 10.8387C1.75556 11.1332 1.67778 11.4304 1.63333 11.7304C1.93333 11.6859 2.23056 11.6109 2.525 11.5054C2.81944 11.3998 3.02222 11.2915 3.13333 11.1804C3.26667 11.047 3.33889 10.8859 3.35 10.697C3.36111 10.5082 3.3 10.347 3.16667 10.2137C3.03333 10.0804 2.87222 10.0165 2.68333 10.022C2.49444 10.0276 2.33333 10.097 2.2 10.2304Z" fill="black"/>
</svg>
