<svg width="66" height="66" viewBox="0 0 66 66" fill="none" xmlns="http://www.w3.org/2000/svg">
<path d="M21.1411 27.8818C17.941 24.6817 16.341 20.8347 16.341 16.341C16.341 11.8472 17.941 8.00026 21.1411 4.80016C24.3412 1.60005 28.1882 0 32.6819 0C37.1757 0 41.0226 1.60005 44.2227 4.80016C47.4228 8.00026 49.0229 11.8472 49.0229 16.341C49.0229 20.8347 47.4228 24.6817 44.2227 27.8818C41.0226 31.0819 37.1757 32.6819 32.6819 32.6819C28.1882 32.6819 24.3412 31.0819 21.1411 27.8818ZM0 65.3639V53.9252C0 51.6102 0.595764 49.4825 1.78729 47.542C2.97882 45.6015 4.56185 44.1206 6.53639 43.0993C10.7578 40.9886 15.0473 39.4056 19.4049 38.3502C23.7625 37.2948 28.1882 36.7672 32.6819 36.7672C37.1757 36.7672 41.6014 37.2948 45.959 38.3502C50.3166 39.4056 54.6061 40.9886 58.8275 43.0993C60.802 44.1206 62.385 45.6015 63.5766 47.542C64.7681 49.4825 65.3639 51.6102 65.3639 53.9252V65.3639H0ZM8.17048 57.1934H57.1934V53.9252C57.1934 53.1762 57.0061 52.4953 56.6317 51.8826C56.2572 51.2698 55.7635 50.7932 55.1508 50.4527C51.474 48.6144 47.7633 47.2356 44.0185 46.3164C40.2737 45.3972 36.4948 44.9377 32.6819 44.9377C28.869 44.9377 25.0902 45.3972 21.3454 46.3164C17.6006 47.2356 13.8898 48.6144 10.2131 50.4527C9.60032 50.7932 9.10668 51.2698 8.7322 51.8826C8.35772 52.4953 8.17048 53.1762 8.17048 53.9252V57.1934ZM38.4523 22.1114C40.0524 20.5113 40.8524 18.5878 40.8524 16.341C40.8524 14.0941 40.0524 12.1706 38.4523 10.5706C36.8523 8.97051 34.9288 8.17048 32.6819 8.17048C30.435 8.17048 28.5116 8.97051 26.9115 10.5706C25.3115 12.1706 24.5114 14.0941 24.5114 16.341C24.5114 18.5878 25.3115 20.5113 26.9115 22.1114C28.5116 23.7114 30.435 24.5114 32.6819 24.5114C34.9288 24.5114 36.8523 23.7114 38.4523 22.1114Z" fill="white"/>
</svg>
