<svg width="82" height="74" viewBox="0 0 82 74" fill="none" xmlns="http://www.w3.org/2000/svg">
<path d="M0 73.5375V0H40.8542V16.3417H81.7083V73.5375H0ZM8.17083 65.3667H16.3417V57.1958H8.17083V65.3667ZM8.17083 49.025H16.3417V40.8542H8.17083V49.025ZM8.17083 32.6833H16.3417V24.5125H8.17083V32.6833ZM8.17083 16.3417H16.3417V8.17083H8.17083V16.3417ZM24.5125 65.3667H32.6833V57.1958H24.5125V65.3667ZM24.5125 49.025H32.6833V40.8542H24.5125V49.025ZM24.5125 32.6833H32.6833V24.5125H24.5125V32.6833ZM24.5125 16.3417H32.6833V8.17083H24.5125V16.3417ZM40.8542 65.3667H73.5375V24.5125H40.8542V32.6833H49.025V40.8542H40.8542V49.025H49.025V57.1958H40.8542V65.3667ZM57.1958 40.8542V32.6833H65.3667V40.8542H57.1958ZM57.1958 57.1958V49.025H65.3667V57.1958H57.1958Z" fill="white"/>
</svg>
