<svg width="20" height="21" viewBox="0 0 20 21" fill="none" xmlns="http://www.w3.org/2000/svg">
<path d="M8.3 18C8.4 18.3333 8.5375 18.6792 8.7125 19.0375C8.8875 19.3958 9.06667 19.7167 9.25 20H2C1.45 20 0.979167 19.8042 0.5875 19.4125C0.195833 19.0208 0 18.55 0 18V2C0 1.45 0.195833 0.979167 0.5875 0.5875C0.979167 0.195833 1.45 0 2 0H14C14.55 0 15.0208 0.195833 15.4125 0.5875C15.8042 0.979167 16 1.45 16 2V9.1C15.7 9.06667 15.3667 9.05 15 9.05C14.6333 9.05 14.3 9.06667 14 9.1V2H9V9L6.5 7.5L4 9V2H2V18H8.3ZM15 21C13.6167 21 12.4375 20.5125 11.4625 19.5375C10.4875 18.5625 10 17.3833 10 16C10 14.6167 10.4875 13.4375 11.4625 12.4625C12.4375 11.4875 13.6167 11 15 11C16.3833 11 17.5625 11.4875 18.5375 12.4625C19.5125 13.4375 20 14.6167 20 16C20 17.3833 19.5125 18.5625 18.5375 19.5375C17.5625 20.5125 16.3833 21 15 21ZM13.75 18.5L17.75 16L13.75 13.5V18.5ZM8.3 2H2H14H8H8.3Z" fill="black"/>
</svg>
