<svg width="650" height="513" viewBox="0 0 650 513" fill="none" xmlns="http://www.w3.org/2000/svg">
<path d="M610.362 469.464C601.55 482.322 585.26 491.082 565.026 491.901L125.497 509.779C91.0725 511.163 58.3897 489.032 52.4986 460.345L3.47423 221.473C-1.39234 197.653 13.7197 176.803 38.6673 169.632" fill="#0E0E0E"/>
<path d="M610.362 469.464C601.55 482.322 585.26 491.082 565.026 491.901L125.497 509.779C91.0726 511.163 58.3897 489.032 52.4986 460.345L3.47423 221.473C-1.39234 197.653 13.7197 176.803 38.6673 169.632" stroke="#0E0E0E" stroke-width="5.12271" stroke-miterlimit="10"/>
<path d="M555.395 134.642C576.244 142.787 592.586 159.231 596.581 178.697L645.606 417.569C651.497 446.256 628.342 470.64 593.918 472.075L154.389 489.953C119.965 491.336 87.2817 469.206 81.3906 440.519L32.3663 201.647C26.4752 172.96 49.6299 148.576 84.0545 147.193L477.325 131.21" fill="white"/>
<path d="M555.395 134.642C576.244 142.787 592.586 159.231 596.581 178.697L645.606 417.569C651.497 446.256 628.342 470.64 593.918 472.075L154.389 489.953C119.965 491.336 87.2818 469.206 81.3906 440.519L32.3663 201.647C26.4752 172.96 49.6299 148.576 84.0545 147.193L477.325 131.21" stroke="#1D1D1B" stroke-width="5.12271" stroke-miterlimit="10"/>
<path d="M513.698 176.341C531.781 180.797 546.791 193.911 550.069 209.894L587.158 390.675C591.358 411.063 574.914 428.378 550.428 429.351L179.749 444.412C155.313 445.436 132.108 429.71 127.907 409.321L90.8185 228.592C86.6179 208.204 103.062 190.889 127.548 189.865L430.966 177.519" fill="#2B63F0"/>
<path d="M513.698 176.341C531.781 180.797 546.791 193.911 550.069 209.894L587.158 390.675C591.358 411.063 574.914 428.378 550.428 429.351L179.749 444.412C155.313 445.436 132.108 429.71 127.907 409.321L90.8185 228.592C86.6179 208.204 103.062 190.889 127.548 189.865L430.966 177.519" stroke="#1D1D1B" stroke-width="5.12271" stroke-miterlimit="10"/>
<path d="M42.2048 357.071L64.0788 356.149L49.684 286.019L27.8101 286.89L42.2048 357.071Z" fill="#2B63F0" stroke="#1D1D1B" stroke-width="5.12271" stroke-miterlimit="10"/>
<path d="M344.804 303.845L398.951 287.299C402.588 286.172 405.866 284.225 408.582 281.51L639.769 50.3221C646.429 43.6626 648.632 33.4684 644.738 24.9134C640.845 16.3585 633.417 8.67445 624.401 4.57628C615.385 0.478117 605.652 2.88579 598.993 9.54531L367.651 240.887C365.039 243.499 363.092 246.675 361.965 250.21L346.494 298.517C345.367 302.052 343.421 305.228 340.808 307.841L339.015 309.634L350.593 298.056" fill="#0E0E0E"/>
<path d="M344.804 303.845L398.951 287.299C402.588 286.172 405.866 284.225 408.582 281.51L639.769 50.3221C646.429 43.6626 648.632 33.4684 644.738 24.9134C640.845 16.3585 633.417 8.67445 624.401 4.57628C615.385 0.478117 605.652 2.88579 598.993 9.54531L367.651 240.887C365.039 243.499 363.092 246.675 361.965 250.21L346.494 298.517C345.367 302.052 343.421 305.228 340.808 307.841L339.015 309.634L350.593 298.056" stroke="#0E0E0E" stroke-width="5.12271" stroke-miterlimit="10"/>
<path d="M596.02 20.9695L389.626 227.363" stroke="white" stroke-width="5.12271" stroke-linecap="round" stroke-linejoin="round"/>
</svg>
