<svg width="584" height="367" viewBox="0 0 584 367" fill="none" xmlns="http://www.w3.org/2000/svg">
<path d="M44.9375 31.6064H28.9901C13.8687 31.6064 1.60645 43.8645 1.60645 58.9172V337.296C1.60645 352.412 13.8687 364.606 28.9901 364.606H519.546C530.093 364.606 538.606 356.096 538.606 345.552V334.501" fill="#0E0E0E"/>
<path d="M44.9375 31.6064H28.9901C13.8687 31.6064 1.60645 43.8645 1.60645 58.9172V337.296C1.60645 352.412 13.8687 364.606 28.9901 364.606H519.546C530.093 364.606 538.606 356.096 538.606 345.552V334.501" stroke="#0E0E0E" stroke-width="3.21242" stroke-miterlimit="10"/>
<path d="M562.543 1.60645H174.67C164.141 1.60645 155.606 10.1372 155.606 20.6604V315.552C155.606 326.076 164.141 334.606 174.67 334.606H562.543C573.072 334.606 581.606 326.076 581.606 315.552V20.6604C581.606 10.1372 573.072 1.60645 562.543 1.60645Z" fill="white" stroke="#0E0E0E" stroke-width="3.21242" stroke-miterlimit="10"/>
<path d="M163.263 1.60645H71.9497C56.8484 1.60645 44.6064 13.8339 44.6064 28.9172V307.296C44.6064 322.379 56.8484 334.606 71.9497 334.606H163.263C178.364 334.606 190.606 322.379 190.606 307.296V28.9172C190.606 13.8339 178.364 1.60645 163.263 1.60645Z" fill="#2B63F0" stroke="#0E0E0E" stroke-width="3.21242" stroke-miterlimit="10"/>
<path d="M369.106 308.606C443.941 308.606 504.606 247.941 504.606 173.106C504.606 98.2719 443.941 37.6064 369.106 37.6064C294.272 37.6064 233.606 98.2719 233.606 173.106C233.606 247.941 294.272 308.606 369.106 308.606Z" fill="#0E0E0E" stroke="#0E0E0E" stroke-width="3.21242" stroke-miterlimit="10"/>
<path d="M382.106 303.606C456.941 303.606 517.606 242.941 517.606 168.106C517.606 93.2719 456.941 32.6064 382.106 32.6064C307.272 32.6064 246.606 93.2719 246.606 168.106C246.606 242.941 307.272 303.606 382.106 303.606Z" fill="white" stroke="#0E0E0E" stroke-width="3.21242" stroke-miterlimit="10"/>
<path d="M381.606 279.606C443.462 279.606 493.606 229.686 493.606 168.106C493.606 106.527 443.462 56.6064 381.606 56.6064C319.751 56.6064 269.606 106.527 269.606 168.106C269.606 229.686 319.751 279.606 381.606 279.606Z" fill="#0E0E0E" stroke="#0E0E0E" stroke-width="3.21242" stroke-miterlimit="10"/>
<path d="M414.106 197.606C449.729 197.606 478.606 168.953 478.606 133.606C478.606 98.2602 449.729 69.6064 414.106 69.6064C378.484 69.6064 349.606 98.2602 349.606 133.606C349.606 168.953 378.484 197.606 414.106 197.606Z" fill="white" stroke="#0E0E0E" stroke-width="3.21242" stroke-miterlimit="10"/>
<path d="M573.606 268.606H526.606V280.606H573.606V268.606Z" fill="white" stroke="#0E0E0E" stroke-width="3.21242" stroke-miterlimit="10"/>
<path d="M144.399 36.6064H81.8142C78.3858 36.6064 75.6064 39.4015 75.6064 42.8494V73.3635C75.6064 76.8114 78.3858 79.6064 81.8142 79.6064H144.399C147.827 79.6064 150.606 76.8114 150.606 73.3635V42.8494C150.606 39.4015 147.827 36.6064 144.399 36.6064Z" fill="white"/>
<path d="M517.106 60.6064C528.981 60.6064 538.606 50.9806 538.606 39.1064C538.606 27.2323 528.981 17.6064 517.106 17.6064C505.232 17.6064 495.606 27.2323 495.606 39.1064C495.606 50.9806 505.232 60.6064 517.106 60.6064Z" fill="#0E0E0E" stroke="#0E0E0E" stroke-width="3.21242" stroke-miterlimit="10"/>
<path d="M526.606 55.6064C538.204 55.6064 547.606 46.2044 547.606 34.6064C547.606 23.0085 538.204 13.6064 526.606 13.6064C515.008 13.6064 505.606 23.0085 505.606 34.6064C505.606 46.2044 515.008 55.6064 526.606 55.6064Z" fill="white" stroke="#0E0E0E" stroke-width="3.21242" stroke-miterlimit="10"/>
</svg>
