<svg width="587" height="492" viewBox="0 0 587 492" fill="none" xmlns="http://www.w3.org/2000/svg">
<path d="M102.185 491.027L101.706 488.871L2.62838 33.825C1.28691 27.6926 5.93415 21.8955 12.2103 21.8955H23.3733L561.447 469.42L564.992 485.661L565.232 488.871H101.226" fill="#0E0E0E"/>
<path d="M102.185 491.027L101.706 488.871L2.62838 33.825C1.28691 27.6926 5.93415 21.8955 12.2103 21.8955H23.3733L561.447 469.42L564.992 485.661L565.232 488.871H101.226" stroke="#1D1D1B" stroke-width="4.79097" stroke-miterlimit="10"/>
<path d="M120.391 469.419H584.397L584.157 466.209L484.84 10.1569C483.834 5.65341 479.858 2.39551 475.21 2.39551H31.3753C25.0992 2.39551 20.4519 8.1926 21.7455 14.325L121.302 471.527" fill="white"/>
<path d="M120.391 469.419H584.397L584.157 466.209L484.84 10.1569C483.834 5.65341 479.858 2.39551 475.21 2.39551H31.3753C25.0992 2.39551 20.4519 8.1926 21.7455 14.325L121.302 471.527" stroke="#1D1D1B" stroke-width="4.79097" stroke-miterlimit="10"/>
<path d="M100.077 29.7537L158.047 296.036C158.718 299.006 161.353 301.162 164.419 301.162H483.019C487.187 301.162 490.253 297.329 489.391 293.257L431.42 26.9749C430.749 24.0045 428.114 21.8486 425.048 21.8486H106.449C102.28 21.8486 99.2142 25.6814 100.077 29.7537Z" fill="#2B63F0"/>
</svg>
