<svg width="712" height="722" viewBox="0 0 712 722" fill="none" xmlns="http://www.w3.org/2000/svg">
<g clip-path="url(#clip0_113_2)">
<path d="M26.316 56.2812H19.8655C13.749 56.2812 8.78906 61.2412 8.78906 67.332V179.972C8.78906 186.089 13.749 191.023 19.8655 191.023H218.29C222.556 191.023 226 187.579 226 183.313V178.841" fill="#0E0E0E"/>
<path d="M26.316 56.2812H19.8655C13.749 56.2812 8.78906 61.2412 8.78906 67.332V179.972C8.78906 186.089 13.749 191.023 19.8655 191.023H218.29C222.556 191.023 226 187.579 226 183.313V178.841" stroke="#0E0E0E" stroke-width="2.56993" stroke-miterlimit="10"/>
<path d="M235.816 44.0742H78.9476C74.6896 44.0742 71.2378 47.526 71.2378 51.784V171.106C71.2378 175.364 74.6896 178.816 78.9476 178.816H235.816C240.074 178.816 243.526 175.364 243.526 171.106V51.784C243.526 47.526 240.074 44.0742 235.816 44.0742Z" fill="white" stroke="#0E0E0E" stroke-width="2.56993" stroke-miterlimit="10"/>
<path d="M74.2704 44.0742H37.3661C31.263 44.0742 26.3154 49.0218 26.3154 55.1249V167.765C26.3154 173.868 31.263 178.816 37.3661 178.816H74.2704C80.3735 178.816 85.3211 173.868 85.3211 167.765V55.1249C85.3211 49.0218 80.3735 44.0742 74.2704 44.0742Z" fill="#2B63F0" stroke="#0E0E0E" stroke-width="2.56993" stroke-miterlimit="10"/>
<path d="M157.383 168.176C187.658 168.176 212.2 143.634 212.2 113.36C212.2 83.0852 187.658 58.543 157.383 58.543C127.109 58.543 102.566 83.0852 102.566 113.36C102.566 143.634 127.109 168.176 157.383 168.176Z" fill="#0E0E0E" stroke="#0E0E0E" stroke-width="2.56993" stroke-miterlimit="10"/>
<path d="M162.573 166.274C192.847 166.274 217.39 141.732 217.39 111.457C217.39 81.1829 192.847 56.6406 162.573 56.6406C132.299 56.6406 107.756 81.1829 107.756 111.457C107.756 141.732 132.299 166.274 162.573 166.274Z" fill="white" stroke="#0E0E0E" stroke-width="2.56993" stroke-miterlimit="10"/>
<path d="M162.573 156.637C187.525 156.637 207.753 136.41 207.753 111.458C207.753 86.5058 187.525 66.2783 162.573 66.2783C137.622 66.2783 117.394 86.5058 117.394 111.458C117.394 136.41 137.622 156.637 162.573 156.637Z" fill="#0E0E0E" stroke="#0E0E0E" stroke-width="2.56993" stroke-miterlimit="10"/>
<path d="M175.527 123.638C189.919 123.638 201.586 111.971 201.586 97.5787C201.586 83.1866 189.919 71.5195 175.527 71.5195C161.135 71.5195 149.468 83.1866 149.468 97.5787C149.468 111.971 161.135 123.638 175.527 123.638Z" fill="white" stroke="#0E0E0E" stroke-width="2.56993" stroke-miterlimit="10"/>
<path d="M402.477 425.425C435.463 425.425 462.202 398.685 462.202 365.7C462.202 332.715 435.463 305.975 402.477 305.975C369.492 305.975 342.752 332.715 342.752 365.7C342.752 398.685 369.492 425.425 402.477 425.425Z" fill="#0E0E0E" stroke="#0E0E0E" stroke-width="2.56993" stroke-miterlimit="10"/>
<path d="M396.798 427.482C429.783 427.482 456.523 400.742 456.523 367.757C456.523 334.771 429.783 308.031 396.798 308.031C363.813 308.031 337.073 334.771 337.073 367.757C337.073 400.742 363.813 427.482 396.798 427.482Z" fill="white" stroke="#0E0E0E" stroke-width="2.56993" stroke-miterlimit="10"/>
<path d="M396.797 416.997C423.991 416.997 446.037 394.952 446.037 367.758C446.037 340.563 423.991 318.518 396.797 318.518C369.603 318.518 347.557 340.563 347.557 367.758C347.557 394.952 369.603 416.997 396.797 416.997Z" fill="#2B63F0"/>
<path d="M382.715 411.292C398.398 411.292 411.112 398.578 411.112 382.894C411.112 367.21 398.398 354.496 382.715 354.496C367.031 354.496 354.317 367.21 354.317 382.894C354.317 398.578 367.031 411.292 382.715 411.292Z" fill="white" stroke="#0E0E0E" stroke-width="2.56993" stroke-miterlimit="10"/>
<path d="M240.161 39.3193H221.066V44.0994H240.161V39.3193Z" fill="white" stroke="#0E0E0E" stroke-width="2.56993" stroke-miterlimit="10"/>
<path d="M66.7156 58.4141H41.3247C39.9337 58.4141 38.8062 59.5416 38.8062 60.9326V73.2426C38.8062 74.6335 39.9337 75.7611 41.3247 75.7611H66.7156C68.1066 75.7611 69.2342 74.6335 69.2342 73.2426V60.9326C69.2342 59.5416 68.1066 58.4141 66.7156 58.4141Z" fill="white"/>
<path d="M620.227 235.482C615.806 241.932 607.634 246.327 597.483 246.738L376.983 255.707C359.713 256.401 343.316 245.299 340.361 230.907L315.767 111.071C313.325 99.121 320.907 88.6614 333.422 85.0635" fill="#0E0E0E"/>
<path d="M620.227 235.482C615.806 241.932 607.634 246.327 597.483 246.738L376.983 255.707C359.713 256.401 343.316 245.299 340.361 230.907L315.767 111.071C313.325 99.121 320.907 88.6614 333.422 85.0635" stroke="#0E0E0E" stroke-width="2.56993" stroke-miterlimit="10"/>
<path d="M592.652 67.5109C603.111 71.5971 611.309 79.8466 613.314 89.6123L637.908 209.448C640.864 223.84 629.248 236.073 611.978 236.792L391.477 245.761C374.207 246.455 357.811 235.353 354.856 220.962L330.262 101.126C327.306 86.734 338.922 74.5011 356.192 73.8073L553.486 65.7891" fill="white"/>
<path d="M592.652 67.5109C603.111 71.5971 611.309 79.8466 613.314 89.6123L637.908 209.448C640.864 223.84 629.248 236.073 611.978 236.792L391.477 245.761C374.207 246.455 357.811 235.353 354.856 220.962L330.262 101.126C327.306 86.734 338.922 74.5011 356.192 73.8073L553.486 65.7891" stroke="#1D1D1B" stroke-width="2.56993" stroke-miterlimit="10"/>
<path d="M571.732 88.4297C580.804 90.6655 588.334 97.2446 589.979 105.263L608.585 195.956C610.693 206.184 602.443 214.87 590.159 215.359L404.198 222.914C391.94 223.428 380.298 215.539 378.191 205.31L359.584 114.643C357.477 104.415 365.727 95.7283 378.011 95.2143L530.228 89.0208" fill="#2B63F0"/>
<path d="M571.732 88.4297C580.804 90.6655 588.334 97.2446 589.979 105.263L608.585 195.956C610.693 206.184 602.443 214.87 590.159 215.359L404.198 222.914C391.94 223.428 380.298 215.539 378.191 205.31L359.584 114.643C357.477 104.415 365.727 95.7283 378.011 95.2143L530.228 89.0208" stroke="#1D1D1B" stroke-width="2.56993" stroke-miterlimit="10"/>
<path d="M217.39 77.6626C222.116 77.6626 225.948 73.8311 225.948 69.1048C225.948 64.3784 222.116 60.5469 217.39 60.5469C212.664 60.5469 208.832 64.3784 208.832 69.1048C208.832 73.8311 212.664 77.6626 217.39 77.6626Z" fill="#0E0E0E" stroke="#0E0E0E" stroke-width="2.56993" stroke-miterlimit="10"/>
<path d="M221.066 75.6587C225.792 75.6587 229.624 71.8272 229.624 67.1008C229.624 62.3745 225.792 58.543 221.066 58.543C216.339 58.543 212.508 62.3745 212.508 67.1008C212.508 71.8272 216.339 75.6587 221.066 75.6587Z" fill="white" stroke="#0E0E0E" stroke-width="2.56993" stroke-miterlimit="10"/>
<path d="M335.197 179.098L346.17 178.636L338.949 143.453L327.975 143.89L335.197 179.098Z" fill="#2B63F0" stroke="#1D1D1B" stroke-width="2.56993" stroke-miterlimit="10"/>
<path d="M54.8167 593.088L54.5597 591.932L1.41346 347.84C0.693875 344.55 3.18671 341.44 6.55332 341.44H12.5413L301.171 581.498L303.072 590.21L303.201 591.932H54.3027" fill="#0E0E0E"/>
<path d="M54.8167 593.088L54.5597 591.932L1.41346 347.84C0.693875 344.55 3.18671 341.44 6.55332 341.44H12.5413L301.171 581.498L303.072 590.21L303.201 591.932H54.3027" stroke="#1D1D1B" stroke-width="2.56993" stroke-miterlimit="10"/>
<path d="M64.5827 581.499H313.481L313.352 579.777L260.078 335.145C259.538 332.729 257.405 330.981 254.912 330.981H16.8333C13.4667 330.981 10.9739 334.091 11.6678 337.381L65.071 582.629" fill="white"/>
<path d="M64.5827 581.499H313.481L313.352 579.777L260.078 335.145C259.538 332.729 257.405 330.981 254.912 330.981H16.8333C13.4667 330.981 10.9739 334.091 11.6678 337.381L65.071 582.629" stroke="#1D1D1B" stroke-width="2.56993" stroke-miterlimit="10"/>
<path d="M53.6857 345.655L84.7819 488.492C85.1417 490.086 86.5552 491.242 88.1999 491.242H259.1C261.336 491.242 262.981 489.186 262.519 487.002L231.422 344.165C231.063 342.571 229.649 341.415 228.004 341.415H57.1037C54.8679 341.415 53.2231 343.471 53.6857 345.655Z" fill="#2B63F0"/>
<path d="M624.777 477.699L624.854 477.313L642.664 395.564C642.895 394.459 642.073 393.431 640.942 393.431H638.937L542.256 473.844L541.614 476.774L541.562 477.339H624.828H624.905" fill="#0E0E0E"/>
<path d="M624.777 477.699L624.854 477.313L642.664 395.564C642.895 394.459 642.073 393.431 640.942 393.431H638.937L542.256 473.844L541.614 476.774L541.562 477.339H624.828H624.905" stroke="#1D1D1B" stroke-width="2.56993" stroke-miterlimit="10"/>
<path d="M621.486 473.818H538.118L538.169 473.227L556.004 391.298C556.184 390.476 556.904 389.91 557.726 389.91H637.471C638.602 389.91 639.45 390.964 639.193 392.043L621.306 474.178" fill="white"/>
<path d="M621.486 473.818H538.118L538.169 473.227L556.004 391.298C556.184 390.476 556.904 389.91 557.726 389.91H637.471C638.602 389.91 639.45 390.964 639.193 392.043L621.306 474.178" stroke="#1D1D1B" stroke-width="2.56993" stroke-miterlimit="10"/>
<path d="M625.136 394.819L614.727 442.671C614.599 443.211 614.136 443.596 613.597 443.596H556.364C555.619 443.596 555.053 442.902 555.233 442.183L565.642 394.33C565.77 393.791 566.233 393.405 566.772 393.405H624.005C624.75 393.405 625.315 394.099 625.136 394.819Z" fill="#2B63F0"/>
<path d="M661.347 641.995C655.719 645.978 649.808 649.422 643.871 652.275C596.225 677.486 529.483 674.505 488.519 653.637C473.947 646.107 454.57 634.183 453.876 616.964C455.598 604.68 466.366 596.97 478.393 589.954C484.381 586.485 490.652 583.169 496.28 579.571C497.591 578.749 498.747 577.927 499.801 577.13C501.625 575.742 503.116 574.432 504.298 573.121L500.263 576.847C489.058 572.478 476.851 567.03 468.345 562.404C450.304 552.587 408.542 543.515 412.012 529.458C412.32 528.198 413.425 527.273 415.147 526.631L511.365 552.304C512.573 548.193 514.963 543.592 520.412 538.118L520.771 537.784C525.937 533.133 531.462 529.226 537.347 525.988" fill="#0E0E0E"/>
<path d="M661.347 641.995C655.718 645.978 649.808 649.422 643.871 652.275C596.225 677.486 529.483 674.505 488.519 653.637C473.947 646.107 454.57 634.183 453.876 616.964C455.598 604.68 466.366 596.97 478.393 589.954C484.381 586.485 490.652 583.169 496.28 579.571C497.591 578.749 498.747 577.927 499.801 577.13C501.625 575.742 503.116 574.432 504.298 573.121L500.263 576.847C489.058 572.478 476.851 567.03 468.345 562.404C450.304 552.587 408.542 543.515 412.012 529.458C412.32 528.198 413.425 527.273 415.147 526.631L511.365 552.304C512.573 548.193 514.963 543.592 520.412 538.118L520.771 537.784C525.937 533.133 531.462 529.226 537.347 525.988" stroke="#1D1D1B" stroke-width="2.56993" stroke-linecap="round" stroke-linejoin="round"/>
<path d="M487.003 152.396L514.167 144.095C515.992 143.53 517.637 142.554 518.999 141.191L634.98 25.2104C638.321 21.8695 639.426 16.7553 637.473 12.4635C635.52 8.17172 631.793 4.31682 627.27 2.26087C622.747 0.204927 617.864 1.4128 614.523 4.75371L498.465 120.812C497.154 122.123 496.178 123.716 495.612 125.489L487.851 149.724C487.286 151.497 486.309 153.09 484.999 154.401L484.099 155.3L489.907 149.492" fill="#0E0E0E"/>
<path d="M487.003 152.396L514.167 144.095C515.992 143.53 517.637 142.554 518.999 141.191L634.98 25.2104C638.321 21.8695 639.426 16.7553 637.473 12.4635C635.52 8.17172 631.793 4.31682 627.27 2.26087C622.747 0.204927 617.864 1.4128 614.523 4.75371L498.465 120.812C497.154 122.123 496.178 123.716 495.612 125.489L487.851 149.724C487.286 151.497 486.309 153.09 484.999 154.401L484.099 155.3L489.907 149.492" stroke="#0E0E0E" stroke-width="2.56993" stroke-miterlimit="10"/>
<path d="M277.707 669.132L261.053 684.578C259.948 685.606 258.586 686.351 257.121 686.762L130.269 720.403C126.62 721.379 122.637 720.094 120.452 717.01C118.268 713.926 117.086 709.814 117.497 705.857C117.908 701.899 120.684 699.021 124.359 698.044L251.262 664.378C252.701 663.993 254.192 663.967 255.631 664.275L275.522 668.644C276.961 668.953 278.478 668.927 279.891 668.541L280.893 668.284L274.546 669.955" fill="#0E0E0E"/>
<path d="M277.707 669.132L261.053 684.578C259.948 685.606 258.586 686.351 257.121 686.762L130.269 720.403C126.62 721.379 122.637 720.094 120.452 717.01C118.268 713.926 117.086 709.814 117.497 705.857C117.908 701.899 120.684 699.021 124.359 698.044L251.262 664.378C252.701 663.993 254.192 663.967 255.631 664.275L275.522 668.644C276.961 668.953 278.478 668.927 279.891 668.541L280.893 668.284L274.546 669.955" stroke="#0E0E0E" stroke-width="2.56993" stroke-miterlimit="10"/>
<path d="M518.869 557.855C520.591 550.582 518.998 543.103 530.074 531.95L530.434 531.616C550.094 513.909 575.151 506.996 603.703 505.736C638.731 504.631 687.38 513.883 704.29 544.003C725.543 587.846 690.335 628.528 653.56 646.106C605.887 671.317 539.172 668.336 498.181 647.468C483.636 639.938 464.258 627.988 463.564 610.795C466.109 592.497 488.673 584.351 505.609 573.634" fill="white"/>
<path d="M518.869 557.855C520.591 550.582 518.998 543.103 530.074 531.95L530.434 531.616C550.094 513.909 575.151 506.996 603.703 505.736C638.731 504.631 687.38 513.883 704.29 544.003C725.543 587.846 690.335 628.528 653.56 646.106C605.887 671.317 539.172 668.336 498.181 647.468C483.636 639.938 464.258 627.988 463.564 610.795C466.109 592.497 488.673 584.351 505.609 573.634" stroke="#1D1D1B" stroke-width="2.56993" stroke-miterlimit="10"/>
<path d="M557.693 561.791C566.463 560.047 572.322 552.347 570.78 544.593C569.237 536.84 560.877 531.968 552.107 533.712C543.337 535.457 537.478 543.157 539.021 550.911C540.563 558.664 548.923 563.536 557.693 561.791Z" fill="#2B63F0"/>
<path d="M627.833 538.247C628.534 530.372 621.883 523.345 612.976 522.552C604.07 521.759 596.281 527.499 595.58 535.374C594.878 543.248 601.53 550.275 610.436 551.068C619.343 551.862 627.132 546.121 627.833 538.247Z" fill="#2B63F0"/>
<path d="M677.852 570.658C681.804 563.812 678.731 554.637 670.987 550.166C663.244 545.695 653.761 547.621 649.809 554.468C645.856 561.314 648.929 570.489 656.673 574.96C664.417 579.43 673.899 577.505 677.852 570.658Z" fill="#2B63F0"/>
<path d="M659.429 621.063C666.25 615.281 667.635 605.705 662.523 599.675C657.41 593.644 647.737 593.443 640.916 599.226C634.096 605.008 632.711 614.584 637.823 620.614C642.935 626.644 652.609 626.846 659.429 621.063Z" fill="#2B63F0"/>
<path d="M415.327 525.449C411.858 539.506 453.594 548.604 471.66 558.421C491.063 568.984 529.715 583.786 531.977 580.368C538.222 570.988 515.452 551.277 481.529 535.6C457.628 524.549 417.512 516.608 415.327 525.449Z" fill="white" stroke="#1D1D1B" stroke-width="2.56993" stroke-miterlimit="10"/>
<path d="M561.607 593.962C555.568 588.668 554.18 594.759 548.295 594.348C547.242 594.219 545.957 593.937 544.98 593.705C544.415 593.577 544.106 593.526 544.081 593.577C548.552 596.07 554.257 595.736 559.269 594.399" fill="#1D1D1B"/>
<path d="M565.026 590.544C562.816 588.642 560.4 587.1 557.393 586.972C555.311 586.869 553.41 587.666 551.585 588.591C551.277 588.745 550.968 588.899 550.66 589.054C550.223 589.285 548.989 589.67 550.66 589.105C550.3 589.233 549.94 589.362 549.581 589.465C549.375 589.516 549.195 589.542 548.989 589.593C548.218 589.773 550.3 589.516 549.452 589.542C549.221 589.542 549.015 589.542 548.784 589.542H548.553C548.064 589.516 548.244 589.542 549.066 589.619C548.604 589.439 547.987 589.413 547.499 589.31C546.959 589.182 546.419 589.054 545.88 588.951C544.261 588.642 543.258 588.719 541.691 589.413C540.123 590.107 539.301 592.009 539.301 593.577C539.301 595.221 540.2 596.943 541.691 597.74C547.525 600.901 554.335 600.67 560.58 599.051C563.021 598.408 564.743 595.581 563.946 593.114C563.15 590.647 560.631 589.079 558.01 589.747C556.776 590.056 555.517 590.184 554.283 590.518C555.594 590.184 554.797 590.441 554.386 590.493C554.104 590.518 553.795 590.544 553.513 590.57C552.87 590.621 552.253 590.621 551.611 590.621C551.045 590.621 550.3 590.647 549.735 590.493L550.454 590.595C550.274 590.57 550.069 590.544 549.889 590.518C549.606 590.467 549.324 590.416 549.041 590.338C548.501 590.21 547.936 590.056 547.422 589.876C547.242 589.824 547.062 589.747 546.882 589.67L547.525 589.927C547.293 589.722 546.779 589.568 546.497 589.413V597.74H546.548C545.726 597.945 544.929 598.151 544.107 598.382C542.539 598.357 543.079 598.228 543.67 598.357C543.875 598.408 544.107 598.459 544.312 598.511C544.826 598.639 545.34 598.742 545.88 598.845C547.113 599.076 548.347 599.282 549.606 599.179C551.765 598.973 553.615 598.357 555.543 597.38C556.082 597.123 556.596 596.84 557.136 596.583C557.779 596.249 555.877 597.02 556.571 596.815C556.699 596.789 556.828 596.712 556.956 596.686C557.085 596.66 557.213 596.609 557.342 596.583C557.856 596.429 557.984 596.738 556.699 596.661C556.956 596.661 557.265 596.661 557.522 596.661C556.108 596.712 556.442 596.481 556.931 596.609C556.956 596.609 557.47 596.815 557.496 596.789C557.419 596.866 556.237 596.172 557.033 596.635C557.213 596.738 557.393 596.84 557.547 596.943C557.753 597.072 557.984 597.277 558.215 597.406L557.701 597.02C557.856 597.149 558.036 597.277 558.19 597.431C559.166 598.28 560.271 598.845 561.608 598.845C562.79 598.845 564.203 598.331 565.026 597.431C566.696 595.633 567.056 592.369 565.026 590.621V590.544Z" fill="#2B63F0"/>
<path d="M539.66 571.757C544.98 569.265 551.404 573.068 554.386 576.409C556.724 579.03 556.005 580.238 558.729 584.427C563.252 591.392 567.826 591.983 567.518 594.27C566.953 598.485 550.608 603.316 540.559 596.223C539.48 595.478 535.959 592.882 534.494 588.179C532.772 582.68 533.98 574.405 539.66 571.757Z" stroke="#1D1D1B" stroke-width="2.56993" stroke-miterlimit="10"/>
<path d="M280.123 235.148C272.028 227.104 249.001 251.621 235.072 259.845C220.089 268.686 194.467 288.783 195.855 291.687C199.658 299.679 222.197 292.303 246.483 275.727C263.598 264.06 285.212 240.185 280.123 235.148Z" fill="#0E0E0E" stroke="#0E0E0E" stroke-width="2.56993" stroke-miterlimit="10"/>
<path d="M198.552 300.349C198.064 304.949 192.924 307.724 189.455 308.418C186.731 308.958 186.217 307.956 182.285 308.11C175.757 308.341 173.495 311.194 172.082 310.063C169.461 307.981 172.802 294.977 181.668 291.071C182.619 290.66 185.78 289.298 189.558 290.223C193.978 291.302 199.066 295.466 198.552 300.349Z" fill="#0E0E0E" stroke="#0E0E0E" stroke-width="2.56993" stroke-miterlimit="10"/>
<path d="M613.032 10.4844L509.49 114.027" stroke="white" stroke-width="2.56993" stroke-linecap="round" stroke-linejoin="round"/>
</g>
<defs>
<clipPath id="clip0_113_2">
<rect width="712" height="721.997" fill="white"/>
</clipPath>
</defs>
</svg>
